# xmcd
# 
# Track frame offsets:
#     150
#     20195
#     40505
# 
# Disc length: 827
# 
# Revision: 1
# Processed by: cddbd v1.5.2PL0 Copyright (c) Steve Scherf et al.
# Submitted via: BonkEnc v1.0.6
# 
DISCID=1c033903
DTITLE=嵐 - WISH
DYEAR=2005
DGENRE=Pop
TTITLE0=WISH
TTITLE1=イチオクノホシ
TTITLE2=二人の記念日
EXTD=YEAR: 2005
EXTT0=
EXTT1=
EXTT2=
PLAYORDER=
